
<svg width="51px" height="49px" viewBox="18 8 51 49" version="1.1" xmlns="http://www.w3.org/2000/svg" xmlns:xlink="http://www.w3.org/1999/xlink">
    <!-- Generator: Sketch 42 (36781) - http://www.bohemiancoding.com/sketch -->
    <desc>Created with Sketch.</desc>
    <defs></defs>
    <g id="Cup" stroke="none" stroke-width="1" fill="none" fill-rule="evenodd" transform="translate(18.000000, 8.000000)">
        <path d="M22,49 C34.1502645,49 44,39.1502645 44,27 C35.8596323,27 8.80087478,27 0,27 C0,39.1502645 9.8497355,49 22,49 Z" id="Oval-2" fill="#CDF1E6"></path>
        <path d="M45.0175712,37.2369347 C45.0175712,37.2369347 49.2926115,34.5954335 49.5964699,32.9178671 C49.7926115,31.8349928 46.2870591,29.4713336 46.2870591,29.4713336" id="Path-2" stroke="#CDF1E6"></path>
        <path d="M15.1424896,20.0894257 C15.1424896,20.0894257 9.09077114,18.5003215 9.24396808,15.3619075 C9.39716501,12.2234935 15.0341574,11.8714965 15.7092601,8.47848639 C16.3843627,5.0854763 12.2748003,0.129196236 12.2748003,0.129196236 C12.2748003,0.129196236 20.9984183,4.54243065 21.6367848,7.644645 C22.2751512,10.7468593 16.2585118,12.8517574 15.2790462,14.7286715 C14.2995807,16.6055855 15.1424896,20.0894257 15.1424896,20.0894257 Z" id="Path-3" fill="#CDF1E6"></path>
        <path d="M27.1424896,24.0894257 C27.1424896,24.0894257 21.0907711,22.5003215 21.2439681,19.3619075 C21.397165,16.2234935 27.0341574,15.8714965 27.7092601,12.4784864 C28.3843627,9.0854763 24.2748003,4.12919624 24.2748003,4.12919624 C24.2748003,4.12919624 32.9984183,8.54243065 33.6367848,11.644645 C34.2751512,14.7468593 28.2585118,16.8517574 27.2790462,18.7286715 C26.2995807,20.6055855 27.1424896,24.0894257 27.1424896,24.0894257 Z" id="Path-3-Copy" fill="#CDF1E6"></path>
    </g>
</svg>